<svg xmlns="http://www.w3.org/2000/svg" viewBox="0 0 203.06 74.95"><defs><style>.cls-1{fill:#fff;}.cls-2{fill:none;stroke:#fff;stroke-miterlimit:10;stroke-width:6.44px;}</style></defs><g id="Calque_2" data-name="Calque 2"><g id="Calque_1-2" data-name="Calque 1"><path class="cls-1" d="M75.92,63.39A17.24,17.24,0,0,1,69.68,57a17.44,17.44,0,0,1-2.3-8.85,17.82,17.82,0,0,1,2.33-9,17.17,17.17,0,0,1,6.38-6.45A17.46,17.46,0,0,1,85,30.32a16.73,16.73,0,0,1,8.43,2.15,15.6,15.6,0,0,1,5.92,6,17.46,17.46,0,0,1,2.16,8.72v3.74H75.26a9.77,9.77,0,0,0,3.42,5.32,9.17,9.17,0,0,0,5.89,2q7,0,9.21-6.15l7,2.58a15.6,15.6,0,0,1-6.07,8.14,17.54,17.54,0,0,1-10.1,2.91A16.53,16.53,0,0,1,75.92,63.39Zm17.4-20a8.46,8.46,0,0,0-3.17-4.14A8.8,8.8,0,0,0,85,37.79a10,10,0,0,0-5.43,1.53,9.76,9.76,0,0,0-3.71,4.11Z"/><polygon class="cls-1" points="107.08 17.5 107.07 17.5 106.96 65.21 114.6 65.21 114.6 19.25 107.08 17.5"/><path class="cls-1" d="M152.65,39a16.62,16.62,0,0,0-6.24-6.35,17.41,17.41,0,0,0-8.92-2.3,16.83,16.83,0,0,0-9.84,3V30.89h-7.53v42.3L127.65,75h0V62.76a16.9,16.9,0,0,0,9.84,3,17.51,17.51,0,0,0,8.92-2.3,16.72,16.72,0,0,0,6.24-6.36,19.22,19.22,0,0,0,0-18.12Zm-6.53,14.38A9.22,9.22,0,0,1,142.61,57a10.09,10.09,0,0,1-5.12,1.29,9.66,9.66,0,0,1-5-1.32A9.49,9.49,0,0,1,129,53.27a11.19,11.19,0,0,1,0-10.47,9.43,9.43,0,0,1,3.54-3.68,9.57,9.57,0,0,1,5-1.33,10,10,0,0,1,5.12,1.3,9.19,9.19,0,0,1,3.51,3.62,11.86,11.86,0,0,1,0,10.64Z"/><polygon class="cls-1" points="168.26 30.88 168.26 21.71 160.73 21.71 160.73 29.11 168.26 30.88"/><polygon class="cls-1" points="160.73 32.65 160.73 65.17 168.26 65.17 168.26 30.89 168.25 30.89 160.73 32.65"/><path class="cls-1" d="M182,64.25a13,13,0,0,1-5.35-4.2,11.24,11.24,0,0,1-2.16-6.21l7.59-1.78a10.92,10.92,0,0,0-.11,1.09,4.37,4.37,0,0,0,2,3.77,9.74,9.74,0,0,0,5.61,1.41,8.41,8.41,0,0,0,4.37-.95,2.92,2.92,0,0,0,1.55-2.62,1.73,1.73,0,0,0-.69-1.52,8.8,8.8,0,0,0-2.87-1l-7.19-1.61a14.8,14.8,0,0,1-2.07-.58l-1.44-.57q-5.64-2.53-5.64-8.4a9.77,9.77,0,0,1,1.67-5.58,11.08,11.08,0,0,1,4.63-3.85,15.71,15.71,0,0,1,6.7-1.38,14.48,14.48,0,0,1,9.49,3.1,12.72,12.72,0,0,1,4.55,8.4l-7.54,1.55a4.8,4.8,0,0,0-1.61-4.11,7.32,7.32,0,0,0-4.89-1.47,7.55,7.55,0,0,0-4,.92,2.77,2.77,0,0,0-1.49,2.42,1.63,1.63,0,0,0,.69,1.41,8.28,8.28,0,0,0,2.82.89l8.16,1.84A14.93,14.93,0,0,1,201.08,49a8.35,8.35,0,0,1,2,5.78,9.93,9.93,0,0,1-1.7,5.72,11.07,11.07,0,0,1-4.77,3.89,16.9,16.9,0,0,1-7,1.38A18.51,18.51,0,0,1,182,64.25Z"/><path class="cls-2" d="M6,52.93l18-11L23,37S5.58,32.27,3.37,48.5C1.71,60.61,14.19,65.31,26.24,64.82c5.08-.17,14.76-3.86,20-11.56,7.33-10.76,8.61-17.63,8.61-17.63L52.31,33,41.57,41.29l-1.06-.74L50.67,20.22l-3.2-2.46L33.05,32.1l-.5-.82,8.53-24L36.24,5.79,22.55,26.53l-.9-.17L24.52,5,21,3.74A48,48,0,0,0,10.42,29.4"/></g></g></svg>